<?xml version="1.0" encoding="UTF-8" standalone="no"?>
<!DOCTYPE svg PUBLIC "-//W3C//DTD SVG 1.1//EN"
 "http://www.w3.org/Graphics/SVG/1.1/DTD/svg11.dtd">
<!-- Generated by graphviz version 12.2.1 (20241206.2353)
 -->
<!-- Title: Slave.cpp Pages: 1 -->
<svg width="298pt" height="84pt"
 viewBox="0.00 0.00 298.25 84.00" xmlns="http://www.w3.org/2000/svg" xmlns:xlink="http://www.w3.org/1999/xlink">

<svg id="main" version="1.1" xmlns="http://www.w3.org/2000/svg" xmlns:xlink="http://www.w3.org/1999/xlink" xml:space="preserve">

<style type="text/css"><![CDATA[
.node, .edge {opacity: 0.7;}
.node.selected, .edge.selected {opacity: 1;}
.edge:hover path { stroke: red; }
.edge:hover polygon { stroke: red; fill: red; }
]]></style>
<script type="application/ecmascript" xlink:href="svg.min.js"/>
<svg id="graph" class="graph">
<g id="graph0" class="graph" transform="scale(1 1) rotate(0) translate(4 80)">
<title>Slave.cpp</title>
<!-- Node1 -->
<g id="Node000001" class="node">
<title>Node1</title>
<g id="a_Node000001"><a xlink:title=" ">
<polygon fill="#999999" stroke="#666666" points="168.25,-76 108.75,-76 108.75,-56 168.25,-56 168.25,-76"/>
<text text-anchor="middle" x="138.5" y="-62.5" font-family="Helvetica,sans-Serif" font-size="10.00">Slave.cpp</text>
</a>
</g>
</g>
<!-- Node2 -->
<g id="Node000002" class="node">
<title>Node2</title>
<g id="a_Node000002"><a xlink:href="_slave_8h.html" target="_top" xlink:title=" ">
<polygon fill="white" stroke="#666666" points="49,-20 0,-20 0,0 49,0 49,-20"/>
<text text-anchor="middle" x="24.5" y="-6.5" font-family="Helvetica,sans-Serif" font-size="10.00">Slave.h</text>
</a>
</g>
</g>
<!-- Node1&#45;&gt;Node2 -->
<g id="edge1_Node000001_Node000002" class="edge">
<title>Node1&#45;&gt;Node2</title>
<g id="a_edge1_Node000001_Node000002"><a xlink:title=" ">
<path fill="none" stroke="#63b8ff" d="M118.64,-55.59C101.01,-47.24 74.99,-34.92 54.77,-25.34"/>
<polygon fill="#63b8ff" stroke="#63b8ff" points="56.42,-22.25 45.88,-21.13 53.42,-28.57 56.42,-22.25"/>
</a>
</g>
</g>
<!-- Node3 -->
<g id="Node000003" class="node">
<title>Node3</title>
<g id="a_Node000003"><a xlink:title=" ">
<polygon fill="#e0e0e0" stroke="#999999" points="125.88,-20 67.12,-20 67.12,0 125.88,0 125.88,-20"/>
<text text-anchor="middle" x="96.5" y="-6.5" font-family="Helvetica,sans-Serif" font-size="10.00">wiringPi.h</text>
</a>
</g>
</g>
<!-- Node1&#45;&gt;Node3 -->
<g id="edge2_Node000001_Node000003" class="edge">
<title>Node1&#45;&gt;Node3</title>
<g id="a_edge2_Node000001_Node000003"><a xlink:title=" ">
<path fill="none" stroke="#63b8ff" d="M131.18,-55.59C125.52,-48.32 117.51,-38.02 110.61,-29.15"/>
<polygon fill="#63b8ff" stroke="#63b8ff" points="113.56,-27.24 104.66,-21.49 108.04,-31.54 113.56,-27.24"/>
</a>
</g>
</g>
<!-- Node4 -->
<g id="Node000004" class="node">
<title>Node4</title>
<g id="a_Node000004"><a xlink:title=" ">
<polygon fill="#e0e0e0" stroke="#999999" points="218.75,-20 144.25,-20 144.25,0 218.75,0 218.75,-20"/>
<text text-anchor="middle" x="181.5" y="-6.5" font-family="Helvetica,sans-Serif" font-size="10.00">wiringPiI2C.h</text>
</a>
</g>
</g>
<!-- Node1&#45;&gt;Node4 -->
<g id="edge3_Node000001_Node000004" class="edge">
<title>Node1&#45;&gt;Node4</title>
<g id="a_edge3_Node000001_Node000004"><a xlink:title=" ">
<path fill="none" stroke="#63b8ff" d="M145.99,-55.59C151.79,-48.32 159.99,-38.02 167.05,-29.15"/>
<polygon fill="#63b8ff" stroke="#63b8ff" points="169.66,-31.49 173.15,-21.48 164.19,-27.12 169.66,-31.49"/>
</a>
</g>
</g>
<!-- Node5 -->
<g id="Node000005" class="node">
<title>Node5</title>
<g id="a_Node000005"><a xlink:title=" ">
<polygon fill="#e0e0e0" stroke="#999999" points="290.25,-20 236.75,-20 236.75,0 290.25,0 290.25,-20"/>
<text text-anchor="middle" x="263.5" y="-6.5" font-family="Helvetica,sans-Serif" font-size="10.00">iostream</text>
</a>
</g>
</g>
<!-- Node1&#45;&gt;Node5 -->
<g id="edge4_Node000001_Node000005" class="edge">
<title>Node1&#45;&gt;Node5</title>
<g id="a_edge4_Node000001_Node000005"><a xlink:title=" ">
<path fill="none" stroke="#63b8ff" d="M160.27,-55.59C179.87,-47.13 208.93,-34.58 231.22,-24.94"/>
<polygon fill="#63b8ff" stroke="#63b8ff" points="232.38,-28.26 240.17,-21.08 229.6,-21.83 232.38,-28.26"/>
</a>
</g>
</g>
</g>
</svg>
</svg>

<style type='text/css'>
<![CDATA[
[data-mouse-over-selected='false'] { opacity: 0.7; }
[data-mouse-over-selected='true']  { opacity: 1.0; }
]]>
</style>
<script type="application/ecmascript"><![CDATA[
document.addEventListener('DOMContentLoaded', (event) => {
  highlightEdges();
  highlightAdjacentNodes();
});
]]></script>
</svg>
